<?xml version="1.0" encoding="UTF-8"?>
<!DOCTYPE svg PUBLIC "-//W3C//DTD SVG 1.1//EN" "http://www.w3.org/Graphics/SVG/1.1/DTD/svg11.dtd">
<svg xmlns="http://www.w3.org/2000/svg" version="1.1" width="1081px" height="1081px" style="shape-rendering:geometricPrecision; text-rendering:geometricPrecision; image-rendering:optimizeQuality; fill-rule:evenodd; clip-rule:evenodd" xmlns:xlink="http://www.w3.org/1999/xlink">
<g><path style="opacity:1" fill="#f9ce82" d="M 516.5,110.5 C 654.107,106.585 769.273,154.918 862,255.5C 954.209,365.325 986.542,490.992 959,632.5C 927.505,763.065 852.672,859.898 734.5,923C 617.675,979.175 498.675,984.175 377.5,938C 273.966,893.8 197.8,820.967 149,719.5C 109.274,630.299 99.9412,537.965 121,442.5C 151.463,322.298 219.629,230.465 325.5,167C 384.976,133.671 448.643,114.838 516.5,110.5 Z M 513.5,121.5 C 658.728,116.719 777.228,170.052 869,281.5C 949.784,389.012 975.451,508.678 946,640.5C 911.846,766.966 836.346,859.466 719.5,918C 599.501,972 479.501,972 359.5,918C 255.711,866.54 183.878,786.374 144,677.5C 105.303,559.171 115.303,445.171 174,335.5C 240.341,222.357 338.174,153.023 467.5,127.5C 482.918,124.99 498.251,122.99 513.5,121.5 Z"/></g>
<g><path style="opacity:1" fill="#f9ce82" d="M 546.5,255.5 C 552.167,255.5 557.833,255.5 563.5,255.5C 563.5,276.833 563.5,298.167 563.5,319.5C 557.833,319.5 552.167,319.5 546.5,319.5C 546.5,298.167 546.5,276.833 546.5,255.5 Z"/></g>
<g><path style="opacity:1" fill="#957643" d="M 484.5,271.5 C 489.833,271.5 495.167,271.5 500.5,271.5C 500.5,287.5 500.5,303.5 500.5,319.5C 495.167,319.5 489.833,319.5 484.5,319.5C 484.5,303.5 484.5,287.5 484.5,271.5 Z"/></g>
<g><path style="opacity:1" fill="#f9e1b4" d="M 609.5,271.5 C 615.167,271.5 620.833,271.5 626.5,271.5C 626.5,287.5 626.5,303.5 626.5,319.5C 620.833,319.5 615.167,319.5 609.5,319.5C 609.5,303.5 609.5,287.5 609.5,271.5 Z"/></g>
<g><path style="opacity:1" fill="#f9ce82" d="M 515.5,286.5 C 521.167,286.5 526.833,286.5 532.5,286.5C 532.5,297.5 532.5,308.5 532.5,319.5C 526.833,319.5 521.167,319.5 515.5,319.5C 515.5,308.5 515.5,297.5 515.5,286.5 Z"/></g>
<g><path style="opacity:1" fill="#f9ce82" d="M 578.5,286.5 C 583.833,286.5 589.167,286.5 594.5,286.5C 594.5,297.5 594.5,308.5 594.5,319.5C 589.167,319.5 583.833,319.5 578.5,319.5C 578.5,308.5 578.5,297.5 578.5,286.5 Z"/></g>
<g><path style="opacity:1" fill="#face83" d="M 516.5,333.5 C 542.5,333.5 568.5,333.5 594.5,333.5C 594.5,333.833 594.5,334.167 594.5,334.5C 594.5,339.5 594.5,344.5 594.5,349.5C 594.5,349.833 594.5,350.167 594.5,350.5C 568.5,350.5 542.5,350.5 516.5,350.5C 516.5,344.833 516.5,339.167 516.5,333.5 Z"/></g>
<g><path style="opacity:1" fill="#957643" d="M 484.5,334.5 C 494.833,334.5 505.167,334.5 515.5,334.5C 515.5,339.5 515.5,344.5 515.5,349.5C 505.167,349.5 494.833,349.5 484.5,349.5C 484.5,344.5 484.5,339.5 484.5,334.5 Z"/></g>
<g><path style="opacity:1" fill="#f9e1b4" d="M 594.5,334.5 C 604.833,334.5 615.167,334.5 625.5,334.5C 625.5,339.5 625.5,344.5 625.5,349.5C 615.167,349.5 604.833,349.5 594.5,349.5C 594.5,344.5 594.5,339.5 594.5,334.5 Z"/></g>
<g><path style="opacity:1" fill="#bf9a5c" d="M 484.5,334.5 C 494.987,333.506 505.654,333.172 516.5,333.5C 516.5,339.167 516.5,344.833 516.5,350.5C 505.654,350.828 494.987,350.494 484.5,349.5C 494.833,349.5 505.167,349.5 515.5,349.5C 515.5,344.5 515.5,339.5 515.5,334.5C 505.167,334.5 494.833,334.5 484.5,334.5 Z"/></g>
<g><path style="opacity:1" fill="#fad9a1" d="M 594.5,334.5 C 594.5,334.167 594.5,333.833 594.5,333.5C 605.167,333.5 615.833,333.5 626.5,333.5C 626.5,339.167 626.5,344.833 626.5,350.5C 615.833,350.5 605.167,350.5 594.5,350.5C 594.5,350.167 594.5,349.833 594.5,349.5C 604.833,349.5 615.167,349.5 625.5,349.5C 625.5,344.5 625.5,339.5 625.5,334.5C 615.167,334.5 604.833,334.5 594.5,334.5 Z"/></g>
<g><path style="opacity:1" fill="#967644" d="M 531.5,365.5 C 531.5,370.833 531.5,376.167 531.5,381.5C 500.167,381.5 468.833,381.5 437.5,381.5C 437.5,376.167 437.5,370.833 437.5,365.5C 468.833,365.5 500.167,365.5 531.5,365.5 Z"/></g>
<g><path style="opacity:1" fill="#f9cd82" d="M 531.5,365.5 C 562.833,365.5 594.167,365.5 625.5,365.5C 625.5,370.833 625.5,376.167 625.5,381.5C 594.167,381.5 562.833,381.5 531.5,381.5C 531.5,376.167 531.5,370.833 531.5,365.5 Z"/></g>
<g><path style="opacity:1" fill="#fae0b4" d="M 625.5,365.5 C 636.167,365.5 646.833,365.5 657.5,365.5C 657.5,370.833 657.5,376.167 657.5,381.5C 646.833,381.5 636.167,381.5 625.5,381.5C 625.5,376.167 625.5,370.833 625.5,365.5 Z"/></g>
<g><path style="opacity:1" fill="#face83" d="M 500.5,396.5 C 547.5,396.5 594.5,396.5 641.5,396.5C 641.5,396.833 641.5,397.167 641.5,397.5C 641.5,402.5 641.5,407.5 641.5,412.5C 641.5,412.833 641.5,413.167 641.5,413.5C 594.5,413.5 547.5,413.5 500.5,413.5C 500.5,413.167 500.5,412.833 500.5,412.5C 500.5,407.5 500.5,402.5 500.5,397.5C 500.5,397.167 500.5,396.833 500.5,396.5 Z"/></g>
<g><path style="opacity:1" fill="#957643" d="M 500.5,397.5 C 500.5,402.5 500.5,407.5 500.5,412.5C 490.167,412.5 479.833,412.5 469.5,412.5C 469.5,407.5 469.5,402.5 469.5,397.5C 479.833,397.5 490.167,397.5 500.5,397.5 Z"/></g>
<g><path style="opacity:1" fill="#f9e1b4" d="M 641.5,397.5 C 651.833,397.5 662.167,397.5 672.5,397.5C 672.5,402.5 672.5,407.5 672.5,412.5C 662.167,412.5 651.833,412.5 641.5,412.5C 641.5,407.5 641.5,402.5 641.5,397.5 Z"/></g>
<g><path style="opacity:1" fill="#be975a" d="M 500.5,396.5 C 500.5,396.833 500.5,397.167 500.5,397.5C 490.167,397.5 479.833,397.5 469.5,397.5C 469.5,402.5 469.5,407.5 469.5,412.5C 479.833,412.5 490.167,412.5 500.5,412.5C 500.5,412.833 500.5,413.167 500.5,413.5C 489.833,413.5 479.167,413.5 468.5,413.5C 468.5,407.833 468.5,402.167 468.5,396.5C 479.167,396.5 489.833,396.5 500.5,396.5 Z"/></g>
<g><path style="opacity:1" fill="#fad9a3" d="M 641.5,397.5 C 641.5,397.167 641.5,396.833 641.5,396.5C 652.167,396.5 662.833,396.5 673.5,396.5C 673.5,402.167 673.5,407.833 673.5,413.5C 662.833,413.5 652.167,413.5 641.5,413.5C 641.5,413.167 641.5,412.833 641.5,412.5C 651.833,412.5 662.167,412.5 672.5,412.5C 672.5,407.5 672.5,402.5 672.5,397.5C 662.167,397.5 651.833,397.5 641.5,397.5 Z"/></g>
<g><path style="opacity:1" fill="#f9ce82" d="M 485.5,427.5 C 552.833,427.5 620.167,427.5 687.5,427.5C 687.5,433.167 687.5,438.833 687.5,444.5C 620.167,444.5 552.833,444.5 485.5,444.5C 485.5,438.833 485.5,433.167 485.5,427.5 Z"/></g>
<g><path style="opacity:1" fill="#fad8a2" d="M 687.5,427.5 C 698.5,427.5 709.5,427.5 720.5,427.5C 720.5,433.167 720.5,438.833 720.5,444.5C 709.5,444.5 698.5,444.5 687.5,444.5C 687.5,438.833 687.5,433.167 687.5,427.5 Z"/></g>
<g><path style="opacity:1" fill="#967644" d="M 390.5,428.5 C 421.833,428.5 453.167,428.5 484.5,428.5C 484.5,433.5 484.5,438.5 484.5,443.5C 453.167,443.5 421.833,443.5 390.5,443.5C 390.5,438.5 390.5,433.5 390.5,428.5 Z"/></g>
<g><path style="opacity:1" fill="#cba162" d="M 390.5,428.5 C 421.996,427.502 453.662,427.168 485.5,427.5C 485.5,433.167 485.5,438.833 485.5,444.5C 453.662,444.832 421.996,444.498 390.5,443.5C 421.833,443.5 453.167,443.5 484.5,443.5C 484.5,438.5 484.5,433.5 484.5,428.5C 453.167,428.5 421.833,428.5 390.5,428.5 Z"/></g>
<g><path style="opacity:1" fill="#f9e1b4" d="M 688.5,428.5 C 698.833,428.5 709.167,428.5 719.5,428.5C 719.5,433.5 719.5,438.5 719.5,443.5C 709.167,443.5 698.833,443.5 688.5,443.5C 688.5,438.5 688.5,433.5 688.5,428.5 Z"/></g>
<g><path style="opacity:1" fill="#997946" d="M 469.5,459.5 C 469.5,464.833 469.5,470.167 469.5,475.5C 463.833,475.5 458.167,475.5 452.5,475.5C 452.5,470.167 452.5,464.833 452.5,459.5C 458.167,459.5 463.833,459.5 469.5,459.5 Z"/></g>
<g><path style="opacity:1" fill="#f9ce82" d="M 469.5,459.5 C 537.167,459.5 604.833,459.5 672.5,459.5C 672.5,464.833 672.5,470.167 672.5,475.5C 604.833,475.5 537.167,475.5 469.5,475.5C 469.5,470.167 469.5,464.833 469.5,459.5 Z"/></g>
<g><path style="opacity:1" fill="#fae0b4" d="M 672.5,459.5 C 693.5,459.5 714.5,459.5 735.5,459.5C 735.5,464.833 735.5,470.167 735.5,475.5C 714.5,475.5 693.5,475.5 672.5,475.5C 672.5,470.167 672.5,464.833 672.5,459.5 Z"/></g>
<g><path style="opacity:1" fill="#face83" d="M 500.5,490.5 C 516.167,490.5 531.833,490.5 547.5,490.5C 547.5,496.167 547.5,501.833 547.5,507.5C 531.833,507.5 516.167,507.5 500.5,507.5C 500.5,507.167 500.5,506.833 500.5,506.5C 500.5,501.167 500.5,495.833 500.5,490.5 Z"/></g>
<g><path style="opacity:1" fill="#f9ce82" d="M 672.5,490.5 C 672.5,495.833 672.5,501.167 672.5,506.5C 672.5,506.833 672.5,507.167 672.5,507.5C 661.833,507.5 651.167,507.5 640.5,507.5C 640.5,501.833 640.5,496.167 640.5,490.5C 651.167,490.5 661.833,490.5 672.5,490.5 Z"/></g>
<g><path style="opacity:1" fill="#977644" d="M 406.5,490.5 C 437.833,490.5 469.167,490.5 500.5,490.5C 500.5,495.833 500.5,501.167 500.5,506.5C 469.167,506.5 437.833,506.5 406.5,506.5C 406.5,501.167 406.5,495.833 406.5,490.5 Z"/></g>
<g><path style="opacity:1" fill="#fae0b3" d="M 547.5,490.5 C 563.167,490.5 578.833,490.5 594.5,490.5C 594.5,496.167 594.5,501.833 594.5,507.5C 578.833,507.5 563.167,507.5 547.5,507.5C 547.5,501.833 547.5,496.167 547.5,490.5 Z"/></g>
<g><path style="opacity:1" fill="#fae0b4" d="M 672.5,490.5 C 688.167,490.5 703.833,490.5 719.5,490.5C 719.5,495.833 719.5,501.167 719.5,506.5C 703.833,506.5 688.167,506.5 672.5,506.5C 672.5,501.167 672.5,495.833 672.5,490.5 Z"/></g>
<g><path style="opacity:1" fill="#c19c5d" d="M 406.5,490.5 C 406.5,495.833 406.5,501.167 406.5,506.5C 437.833,506.5 469.167,506.5 500.5,506.5C 500.5,506.833 500.5,507.167 500.5,507.5C 468.833,507.5 437.167,507.5 405.5,507.5C 405.178,501.642 405.511,495.975 406.5,490.5 Z"/></g>
<g><path style="opacity:1" fill="#fad9a1" d="M 719.5,490.5 C 720.489,495.975 720.822,501.642 720.5,507.5C 704.5,507.5 688.5,507.5 672.5,507.5C 672.5,507.167 672.5,506.833 672.5,506.5C 688.167,506.5 703.833,506.5 719.5,506.5C 719.5,501.167 719.5,495.833 719.5,490.5 Z"/></g>
<g><path style="opacity:1" fill="#f9ce82" d="M 516.5,521.5 C 531.833,521.5 547.167,521.5 562.5,521.5C 562.5,527.167 562.5,532.833 562.5,538.5C 547.167,538.5 531.833,538.5 516.5,538.5C 516.5,532.833 516.5,527.167 516.5,521.5 Z"/></g>
<g><path style="opacity:1" fill="#fad9a7" d="M 562.5,521.5 C 578.5,521.5 594.5,521.5 610.5,521.5C 610.5,527.167 610.5,532.833 610.5,538.5C 594.5,538.5 578.5,538.5 562.5,538.5C 562.5,532.833 562.5,527.167 562.5,521.5 Z"/></g>
<g><path style="opacity:1" fill="#f9e1b4" d="M 563.5,522.5 C 578.833,522.5 594.167,522.5 609.5,522.5C 609.5,527.5 609.5,532.5 609.5,537.5C 594.167,537.5 578.833,537.5 563.5,537.5C 563.5,532.5 563.5,527.5 563.5,522.5 Z"/></g>
<g><path style="opacity:1" fill="#bb9057" d="M 516.5,521.5 C 516.5,527.167 516.5,532.833 516.5,538.5C 495.167,538.5 473.833,538.5 452.5,538.5C 452.5,532.833 452.5,527.167 452.5,521.5C 473.833,521.5 495.167,521.5 516.5,521.5 Z"/></g>
<g><path style="opacity:1" fill="#957643" d="M 453.5,522.5 C 474.167,522.5 494.833,522.5 515.5,522.5C 515.5,527.5 515.5,532.5 515.5,537.5C 494.833,537.5 474.167,537.5 453.5,537.5C 453.5,532.5 453.5,527.5 453.5,522.5 Z"/></g>
<g><path style="opacity:1" fill="#957643" d="M 391.5,553.5 C 427.833,553.5 464.167,553.5 500.5,553.5C 500.5,558.5 500.5,563.5 500.5,568.5C 464.167,568.5 427.833,568.5 391.5,568.5C 391.5,563.5 391.5,558.5 391.5,553.5 Z"/></g>
<g><path style="opacity:1" fill="#f9ce82" d="M 500.5,553.5 C 526.5,553.5 552.5,553.5 578.5,553.5C 578.5,558.833 578.5,564.167 578.5,569.5C 552.5,569.5 526.5,569.5 500.5,569.5C 500.5,569.167 500.5,568.833 500.5,568.5C 500.5,563.5 500.5,558.5 500.5,553.5 Z"/></g>
<g><path style="opacity:1" fill="#fae0b4" d="M 578.5,553.5 C 594.5,553.5 610.5,553.5 626.5,553.5C 626.5,558.833 626.5,564.167 626.5,569.5C 610.5,569.5 594.5,569.5 578.5,569.5C 578.5,564.167 578.5,558.833 578.5,553.5 Z"/></g>
<g><path style="opacity:1" fill="#a88351" d="M 391.5,553.5 C 391.5,558.5 391.5,563.5 391.5,568.5C 427.833,568.5 464.167,568.5 500.5,568.5C 500.5,568.833 500.5,569.167 500.5,569.5C 463.833,569.5 427.167,569.5 390.5,569.5C 390.179,563.974 390.512,558.64 391.5,553.5 Z"/></g>
<g><path style="opacity:1" fill="#a98451" d="M 453.5,585.5 C 453.5,585.167 453.5,584.833 453.5,584.5C 474.5,584.5 495.5,584.5 516.5,584.5C 516.5,589.833 516.5,595.167 516.5,600.5C 516.167,600.5 515.833,600.5 515.5,600.5C 515.5,595.5 515.5,590.5 515.5,585.5C 494.833,585.5 474.167,585.5 453.5,585.5 Z"/></g>
<g><path style="opacity:1" fill="#f9ce82" d="M 516.5,584.5 C 547.5,584.5 578.5,584.5 609.5,584.5C 609.5,590.167 609.5,595.833 609.5,601.5C 578.5,601.5 547.5,601.5 516.5,601.5C 516.5,601.167 516.5,600.833 516.5,600.5C 516.5,595.167 516.5,589.833 516.5,584.5 Z"/></g>
<g><path style="opacity:1" fill="#957643" d="M 453.5,585.5 C 474.167,585.5 494.833,585.5 515.5,585.5C 515.5,590.5 515.5,595.5 515.5,600.5C 494.833,600.5 474.167,600.5 453.5,600.5C 453.5,595.5 453.5,590.5 453.5,585.5 Z"/></g>
<g><path style="opacity:1" fill="#fae0b4" d="M 610.5,584.5 C 620.833,584.5 631.167,584.5 641.5,584.5C 641.5,589.833 641.5,595.167 641.5,600.5C 631.167,600.5 620.833,600.5 610.5,600.5C 610.5,595.167 610.5,589.833 610.5,584.5 Z"/></g>
<g><path style="opacity:1" fill="#c19c5d" d="M 453.5,584.5 C 453.5,584.833 453.5,585.167 453.5,585.5C 453.5,590.5 453.5,595.5 453.5,600.5C 474.167,600.5 494.833,600.5 515.5,600.5C 515.833,600.5 516.167,600.5 516.5,600.5C 516.5,600.833 516.5,601.167 516.5,601.5C 495.167,601.5 473.833,601.5 452.5,601.5C 452.178,595.642 452.511,589.975 453.5,584.5 Z"/></g>
<g><path style="opacity:1" fill="#fad9a3" d="M 609.5,584.5 C 609.833,584.5 610.167,584.5 610.5,584.5C 610.5,589.833 610.5,595.167 610.5,600.5C 620.833,600.5 631.167,600.5 641.5,600.5C 631.013,601.494 620.346,601.828 609.5,601.5C 609.5,595.833 609.5,590.167 609.5,584.5 Z"/></g>
<g><path style="opacity:1" fill="#face83" d="M 500.5,615.5 C 531.833,615.5 563.167,615.5 594.5,615.5C 594.5,615.833 594.5,616.167 594.5,616.5C 594.5,621.5 594.5,626.5 594.5,631.5C 594.5,631.833 594.5,632.167 594.5,632.5C 563.167,632.5 531.833,632.5 500.5,632.5C 500.5,632.167 500.5,631.833 500.5,631.5C 500.5,626.5 500.5,621.5 500.5,616.5C 500.5,616.167 500.5,615.833 500.5,615.5 Z"/></g>
<g><path style="opacity:1" fill="#957643" d="M 500.5,616.5 C 500.5,621.5 500.5,626.5 500.5,631.5C 469.167,631.5 437.833,631.5 406.5,631.5C 406.5,626.5 406.5,621.5 406.5,616.5C 437.833,616.5 469.167,616.5 500.5,616.5 Z"/></g>
<g><path style="opacity:1" fill="#f9e1b4" d="M 594.5,616.5 C 604.833,616.5 615.167,616.5 625.5,616.5C 625.5,621.5 625.5,626.5 625.5,631.5C 615.167,631.5 604.833,631.5 594.5,631.5C 594.5,626.5 594.5,621.5 594.5,616.5 Z"/></g>
<g><path style="opacity:1" fill="#bb8f57" d="M 500.5,615.5 C 500.5,615.833 500.5,616.167 500.5,616.5C 469.167,616.5 437.833,616.5 406.5,616.5C 406.5,621.5 406.5,626.5 406.5,631.5C 437.833,631.5 469.167,631.5 500.5,631.5C 500.5,631.833 500.5,632.167 500.5,632.5C 468.833,632.5 437.167,632.5 405.5,632.5C 405.5,626.833 405.5,621.167 405.5,615.5C 437.167,615.5 468.833,615.5 500.5,615.5 Z"/></g>
<g><path style="opacity:1" fill="#fad9a7" d="M 594.5,616.5 C 594.5,616.167 594.5,615.833 594.5,615.5C 605.167,615.5 615.833,615.5 626.5,615.5C 626.5,621.167 626.5,626.833 626.5,632.5C 615.833,632.5 605.167,632.5 594.5,632.5C 594.5,632.167 594.5,631.833 594.5,631.5C 604.833,631.5 615.167,631.5 625.5,631.5C 625.5,626.5 625.5,621.5 625.5,616.5C 615.167,616.5 604.833,616.5 594.5,616.5 Z"/></g>
<g><path style="opacity:1" fill="#f9cd82" d="M 484.5,646.5 C 526.167,646.5 567.833,646.5 609.5,646.5C 609.5,652.167 609.5,657.833 609.5,663.5C 567.833,663.5 526.167,663.5 484.5,663.5C 484.5,658.167 484.5,652.833 484.5,647.5C 484.5,647.167 484.5,646.833 484.5,646.5 Z"/></g>
<g><path style="opacity:1" fill="#bd9359" d="M 484.5,646.5 C 484.5,646.833 484.5,647.167 484.5,647.5C 479.5,647.5 474.5,647.5 469.5,647.5C 469.5,652.833 469.5,658.167 469.5,663.5C 468.511,658.025 468.178,652.358 468.5,646.5C 473.833,646.5 479.167,646.5 484.5,646.5 Z"/></g>
<g><path style="opacity:1" fill="#977644" d="M 484.5,647.5 C 484.5,652.833 484.5,658.167 484.5,663.5C 479.5,663.5 474.5,663.5 469.5,663.5C 469.5,658.167 469.5,652.833 469.5,647.5C 474.5,647.5 479.5,647.5 484.5,647.5 Z"/></g>
<g><path style="opacity:1" fill="#fae0b3" d="M 609.5,646.5 C 620.167,646.5 630.833,646.5 641.5,646.5C 641.5,652.167 641.5,657.833 641.5,663.5C 630.833,663.5 620.167,663.5 609.5,663.5C 609.5,657.833 609.5,652.167 609.5,646.5 Z"/></g>
<g><path style="opacity:1" fill="#ab8551" d="M 469.5,678.5 C 469.5,683.833 469.5,689.167 469.5,694.5C 469.167,694.5 468.833,694.5 468.5,694.5C 468.5,689.5 468.5,684.5 468.5,679.5C 437.5,679.5 406.5,679.5 375.5,679.5C 375.5,684.5 375.5,689.5 375.5,694.5C 374.512,689.36 374.179,684.026 374.5,678.5C 406.167,678.5 437.833,678.5 469.5,678.5 Z"/></g>
<g><path style="opacity:1" fill="#f9ce82" d="M 469.5,678.5 C 505.833,678.5 542.167,678.5 578.5,678.5C 578.5,683.833 578.5,689.167 578.5,694.5C 542.167,694.5 505.833,694.5 469.5,694.5C 469.5,689.167 469.5,683.833 469.5,678.5 Z"/></g>
<g><path style="opacity:1" fill="#957643" d="M 468.5,694.5 C 437.5,694.5 406.5,694.5 375.5,694.5C 375.5,689.5 375.5,684.5 375.5,679.5C 406.5,679.5 437.5,679.5 468.5,679.5C 468.5,684.5 468.5,689.5 468.5,694.5 Z"/></g>
<g><path style="opacity:1" fill="#fae0b4" d="M 578.5,678.5 C 599.5,678.5 620.5,678.5 641.5,678.5C 641.5,683.833 641.5,689.167 641.5,694.5C 620.5,694.5 599.5,694.5 578.5,694.5C 578.5,689.167 578.5,683.833 578.5,678.5 Z"/></g>
<g><path style="opacity:1" fill="#f9ce82" d="M 482.5,709.5 C 509.167,709.5 535.833,709.5 562.5,709.5C 562.5,715.167 562.5,720.833 562.5,726.5C 535.833,726.5 509.167,726.5 482.5,726.5C 482.5,726.167 482.5,725.833 482.5,725.5C 482.5,720.5 482.5,715.5 482.5,710.5C 482.5,710.167 482.5,709.833 482.5,709.5 Z"/></g>
<g><path style="opacity:1" fill="#be9459" d="M 482.5,709.5 C 482.5,709.833 482.5,710.167 482.5,710.5C 472.833,710.5 463.167,710.5 453.5,710.5C 453.5,715.5 453.5,720.5 453.5,725.5C 463.167,725.5 472.833,725.5 482.5,725.5C 482.5,725.833 482.5,726.167 482.5,726.5C 472.5,726.5 462.5,726.5 452.5,726.5C 452.5,720.833 452.5,715.167 452.5,709.5C 462.5,709.5 472.5,709.5 482.5,709.5 Z"/></g>
<g><path style="opacity:1" fill="#957643" d="M 482.5,710.5 C 482.5,715.5 482.5,720.5 482.5,725.5C 472.833,725.5 463.167,725.5 453.5,725.5C 453.5,720.5 453.5,715.5 453.5,710.5C 463.167,710.5 472.833,710.5 482.5,710.5 Z"/></g>
<g><path style="opacity:1" fill="#f9e1b4" d="M 641.5,710.5 C 641.5,715.5 641.5,720.5 641.5,725.5C 615.5,725.5 589.5,725.5 563.5,725.5C 563.5,720.5 563.5,715.5 563.5,710.5C 589.5,710.5 615.5,710.5 641.5,710.5 Z"/></g>
<g><path style="opacity:1" fill="#fad9a7" d="M 562.5,709.5 C 589.005,709.169 615.339,709.502 641.5,710.5C 615.5,710.5 589.5,710.5 563.5,710.5C 563.5,715.5 563.5,720.5 563.5,725.5C 589.5,725.5 615.5,725.5 641.5,725.5C 615.339,726.498 589.005,726.831 562.5,726.5C 562.5,720.833 562.5,715.167 562.5,709.5 Z"/></g>
<g><path style="opacity:1" fill="#face83" d="M 469.5,740.5 C 511.167,740.5 552.833,740.5 594.5,740.5C 594.5,746.167 594.5,751.833 594.5,757.5C 552.833,757.5 511.167,757.5 469.5,757.5C 469.5,751.833 469.5,746.167 469.5,740.5 Z"/></g>
<g><path style="opacity:1" fill="#fae0b3" d="M 594.5,740.5 C 610.167,740.5 625.833,740.5 641.5,740.5C 641.5,746.167 641.5,751.833 641.5,757.5C 625.833,757.5 610.167,757.5 594.5,757.5C 594.5,751.833 594.5,746.167 594.5,740.5 Z"/></g>
<g><path style="opacity:1" fill="#af8a54" d="M 469.5,740.5 C 469.5,746.167 469.5,751.833 469.5,757.5C 458.833,757.5 448.167,757.5 437.5,757.5C 437.5,751.833 437.5,746.167 437.5,740.5C 448.167,740.5 458.833,740.5 469.5,740.5 Z"/></g>
<g><path style="opacity:1" fill="#957643" d="M 438.5,741.5 C 448.5,741.5 458.5,741.5 468.5,741.5C 468.5,746.5 468.5,751.5 468.5,756.5C 458.5,756.5 448.5,756.5 438.5,756.5C 438.5,751.5 438.5,746.5 438.5,741.5 Z"/></g>
<g><path style="opacity:1" fill="#967644" d="M 484.5,772.5 C 484.5,777.833 484.5,783.167 484.5,788.5C 453.167,788.5 421.833,788.5 390.5,788.5C 390.5,783.167 390.5,777.833 390.5,772.5C 421.833,772.5 453.167,772.5 484.5,772.5 Z"/></g>
<g><path style="opacity:1" fill="#f9cd82" d="M 484.5,772.5 C 531.5,772.5 578.5,772.5 625.5,772.5C 625.5,777.833 625.5,783.167 625.5,788.5C 578.5,788.5 531.5,788.5 484.5,788.5C 484.5,783.167 484.5,777.833 484.5,772.5 Z"/></g>
<g><path style="opacity:1" fill="#fae0b4" d="M 625.5,772.5 C 646.5,772.5 667.5,772.5 688.5,772.5C 688.5,777.833 688.5,783.167 688.5,788.5C 667.5,788.5 646.5,788.5 625.5,788.5C 625.5,783.167 625.5,777.833 625.5,772.5 Z"/></g>
<g><path style="opacity:1" fill="#f9ce82" d="M 500.5,803.5 C 557.833,803.5 615.167,803.5 672.5,803.5C 672.5,809.167 672.5,814.833 672.5,820.5C 615.167,820.5 557.833,820.5 500.5,820.5C 500.5,814.833 500.5,809.167 500.5,803.5 Z"/></g>
<g><path style="opacity:1" fill="#9a7946" d="M 500.5,803.5 C 500.5,809.167 500.5,814.833 500.5,820.5C 448.167,820.5 395.833,820.5 343.5,820.5C 343.5,814.833 343.5,809.167 343.5,803.5C 395.833,803.5 448.167,803.5 500.5,803.5 Z"/></g>
<g><path style="opacity:1" fill="#fae0b3" d="M 672.5,803.5 C 693.5,803.5 714.5,803.5 735.5,803.5C 735.5,809.167 735.5,814.833 735.5,820.5C 714.5,820.5 693.5,820.5 672.5,820.5C 672.5,814.833 672.5,809.167 672.5,803.5 Z"/></g>
</svg>
